HIERARCHY
ROOT Pelvis
{
	OFFSET 0.000000 0.000000 0.000000
	CHANNELS 6 Xposition Yposition Zposition Zrotation Yrotation Xrotation 
	JOINT Left_hip
	{
		OFFSET 0.067986 -0.089946 -0.007639
		CHANNELS 3 Zrotation Yrotation Xrotation
		JOINT Left_knee
		{
			OFFSET 0.036308 -0.388288 -0.004016
			CHANNELS 3 Zrotation Yrotation Xrotation
			JOINT Left_ankle
			{
				OFFSET -0.012264 -0.413250 -0.042878
				CHANNELS 3 Zrotation Yrotation Xrotation
				JOINT Left_foot
				{
					OFFSET 0.024043 -0.058563 0.118570
					CHANNELS 3 Zrotation Yrotation Xrotation
					End Site
					{
						OFFSET 0.000000 0.000000 0.000000
					}
				}
			}
		}
	}
	JOINT Right_hip
	{
		OFFSET -0.065648 -0.089374 -0.003858
		CHANNELS 3 Zrotation Yrotation Xrotation
		JOINT Right_knee
		{
			OFFSET -0.042132 -0.395021 -0.006361
			CHANNELS 3 Zrotation Yrotation Xrotation
			JOINT Right_ankle
			{
				OFFSET 0.014805 -0.413264 -0.041054
				CHANNELS 3 Zrotation Yrotation Xrotation
				JOINT Right_foot
				{
					OFFSET -0.021758 -0.049013 0.121832
					CHANNELS 3 Zrotation Yrotation Xrotation
					End Site
					{
						OFFSET 0.000000 0.000000 0.000000
					}
				}
			}
		}
	}
	JOINT Spine1
	{
		OFFSET -0.002755 0.104406 -0.022277
		CHANNELS 3 Zrotation Yrotation Xrotation
		JOINT Spine2
		{
			OFFSET 0.004136 0.129393 -0.002186
			CHANNELS 3 Zrotation Yrotation Xrotation
			JOINT Spine3
			{
				OFFSET 0.001906 0.049304 0.025578
				CHANNELS 3 Zrotation Yrotation Xrotation
				JOINT Neck
				{
					OFFSET -0.004620 0.210958 -0.044063
					CHANNELS 3 Zrotation Yrotation Xrotation
					JOINT Head
					{
						OFFSET 0.003833 0.067393 0.052435
						CHANNELS 3 Zrotation Yrotation Xrotation
						End Site
						{
							OFFSET 0.000000 0.000000 0.000000
						}
					}
				}
				JOINT Left_collar
				{
					OFFSET 0.070771 0.116689 -0.037192
					CHANNELS 3 Zrotation Yrotation Xrotation
					JOINT Left_shoulder
					{
						OFFSET 0.080652 0.031596 -0.005617
						CHANNELS 3 Zrotation Yrotation Xrotation
						JOINT Left_elbow
						{
							OFFSET 0.262654 -0.015020 -0.027939
							CHANNELS 3 Zrotation Yrotation Xrotation
							JOINT Left_wrist
							{
								OFFSET 0.250438 0.010062 -0.000990
								CHANNELS 3 Zrotation Yrotation Xrotation
								JOINT Left_palm
								{
									OFFSET 0.081198 -0.010037 -0.013706
									CHANNELS 3 Zrotation Yrotation Xrotation
									End Site
									{
										OFFSET 0.000000 0.000000 0.000000
									}
								}
							}
						}
					}
				}
				JOINT Right_collar
				{
					OFFSET -0.072972 0.115556 -0.040762
					CHANNELS 3 Zrotation Yrotation Xrotation
					JOINT Right_shoulder
					{
						OFFSET -0.082917 0.031841 -0.006673
						CHANNELS 3 Zrotation Yrotation Xrotation
						JOINT Right_elbow
						{
							OFFSET -0.252882 -0.013790 -0.020410
							CHANNELS 3 Zrotation Yrotation Xrotation
							JOINT Right_wrist
							{
								OFFSET -0.255570 0.009163 -0.005138
								CHANNELS 3 Zrotation Yrotation Xrotation
								JOINT Right_palm
								{
									OFFSET -0.080804 -0.007282 -0.010415
									CHANNELS 3 Zrotation Yrotation Xrotation
									End Site
									{
										OFFSET 0.000000 0.000000 0.000000
									}
								}
							}
						}
					}
				}
			}
		}
	}
}
MOTION
Frames: 10
Frame Time: 0.100000
0.000000 0.000000 0.000000 175.115913 24.754049 -16.485591 8.801497 6.857433 8.794434 -4.478176 -12.516710 -3.520360 -8.126249 13.567618 -9.114780 3.972333 0.511828 1.582772 -6.944512 -6.770392 8.724330 5.251069 10.002863 -1.282111 14.494033 -11.664690 -10.242748 -11.365629 8.673248 1.902595 1.699367 2.164794 7.644342 0.373004 -2.875610 0.590567 1.088036 0.066076 1.439846 -1.473989 4.066539 -4.647963 0.060750 -0.565002 -8.221694 -7.447052 0.844067 -8.243288 -1.896966 2.371981 -12.897096 1.898189 -7.343009 -6.767919 0.488724 -7.551895 23.363797 -8.472159 -2.908684 -14.188413 8.395503 -0.959656 -6.340229 3.165817 -4.720384 -10.253244 -7.036666 10.675100 -10.510605 0.159253 3.486848 16.779933 9.387831 5.095021 -5.121728 
0.000096 0.000097 -0.000411 175.121561 24.749662 -16.515529 8.793930 6.860387 8.788980 -4.489997 -12.520168 -3.501809 -8.117705 13.561107 -9.102654 3.941954 0.564947 1.560994 -6.951812 -6.753205 8.687825 5.263167 10.004004 -1.202898 14.470919 -11.678630 -10.262354 -11.338560 8.678508 1.889586 1.696405 2.164804 7.697834 0.352466 -2.855665 0.595841 1.073228 0.063452 1.432728 -1.474396 4.071955 -4.644050 0.041037 -0.571249 -8.196961 -7.502626 0.836847 -8.249818 -1.940753 2.353017 -12.899691 1.870993 -7.337411 -6.751750 0.429346 -7.476994 23.410936 -8.474403 -2.916117 -14.204892 8.441322 -0.929045 -6.357886 3.225829 -4.668370 -10.229874 -7.038795 10.701951 -10.503165 0.223327 3.427574 16.830784 9.391555 5.109547 -5.132063 
0.000197 0.000177 -0.000775 175.099910 24.795207 -16.535115 8.795369 6.849294 8.734524 -4.505238 -12.532329 -3.445666 -8.100134 13.537648 -9.112131 3.924005 0.578943 1.553064 -6.945775 -6.758299 8.637162 5.277330 9.969433 -1.116494 14.461719 -11.677022 -10.286314 -11.329749 8.669096 1.888425 1.681377 2.178610 7.757652 0.344298 -2.843226 0.582263 1.072648 0.061741 1.422414 -1.462305 4.074251 -4.683353 0.058713 -0.579103 -8.205864 -7.553528 0.802984 -8.232941 -1.982229 2.331726 -12.857566 1.861510 -7.368875 -6.666258 0.447442 -7.493075 23.458739 -8.477064 -2.923516 -14.219963 8.481011 -0.906504 -6.341618 3.270924 -4.692630 -10.200194 -7.037713 10.713505 -10.455433 0.190065 3.453994 16.871745 9.397130 5.118973 -5.139473 
0.000188 0.000198 -0.000907 175.090994 24.824671 -16.528045 8.793020 6.845618 8.709021 -4.508726 -12.532374 -3.455867 -8.099973 13.517401 -9.096664 3.927617 0.586795 1.556252 -6.944349 -6.766699 8.615777 5.278115 9.943990 -1.110888 14.456873 -11.682418 -10.280759 -11.329252 8.673180 1.892557 1.668001 2.176894 7.773195 0.336015 -2.846647 0.599679 1.071369 0.056876 1.421758 -1.457719 4.056950 -4.699140 0.068521 -0.593703 -8.214275 -7.594829 0.787757 -8.221776 -2.027313 2.334444 -12.831987 1.851192 -7.367578 -6.656689 0.468249 -7.484882 23.455491 -8.485095 -2.933212 -14.233418 8.494575 -0.877994 -6.336430 3.276711 -4.666542 -10.193602 -7.036685 10.746732 -10.447011 0.175352 3.455928 16.881987 9.405154 5.126590 -5.144843 
0.000110 0.000193 -0.000842 175.085399 24.815812 -16.512929 8.798598 6.845758 8.712716 -4.509850 -12.529262 -3.480713 -8.092423 13.514271 -9.094845 3.918606 0.597481 1.570092 -6.942088 -6.766191 8.622745 5.276069 9.938921 -1.150273 14.438996 -11.672437 -10.263845 -11.289552 8.658581 1.914723 1.659757 2.190490 7.782893 0.326608 -2.839595 0.624555 1.062291 0.058787 1.421124 -1.424572 4.030710 -4.648724 0.094129 -0.627537 -8.196029 -7.614611 0.782818 -8.205193 -2.026711 2.339199 -12.808676 1.844126 -7.370786 -6.629889 0.433628 -7.476054 23.477954 -8.490658 -2.934817 -14.255829 8.501656 -0.864057 -6.330401 3.279318 -4.647077 -10.197394 -7.049540 10.765081 -10.444158 0.199508 3.443150 16.865402 9.410180 5.131471 -5.150631 
0.000072 0.000139 -0.000638 175.082287 24.809441 -16.512283 8.791205 6.839007 8.711524 -4.492187 -12.541930 -3.454282 -8.081073 13.536402 -9.114805 3.918744 0.616109 1.579322 -6.929247 -6.757329 8.637768 5.269995 9.957412 -1.161608 14.437663 -11.711065 -10.267611 -11.287907 8.699759 1.926877 1.647385 2.192562 7.798141 0.324515 -2.842751 0.657211 1.057872 0.051885 1.442721 -1.415336 4.065385 -4.545003 0.066541 -0.609404 -8.123037 -7.638674 0.763758 -8.180127 -1.966153 2.367840 -12.792990 1.801480 -7.367726 -6.590700 0.460762 -7.453929 23.563621 -8.517703 -2.957909 -14.318776 8.530977 -0.841220 -6.319956 3.225037 -4.645913 -10.209928 -7.011783 10.728858 -10.494413 0.140888 3.436150 16.872836 9.459127 5.147129 -5.195137 
-0.000081 0.000126 -0.000684 175.072506 24.881467 -16.588665 8.765919 6.831399 8.703535 -4.497782 -12.598778 -3.309642 -8.064659 13.502896 -9.154847 3.892174 0.684306 1.562799 -6.942530 -6.770607 8.673505 5.268089 9.912962 -1.051842 14.436799 -11.759330 -10.304461 -11.280469 8.736959 1.919745 1.651117 2.183920 7.978192 0.313068 -2.864812 0.724764 1.061597 0.027060 1.466674 -1.403664 4.085965 -4.539800 0.066453 -0.572909 -8.133937 -7.771407 0.661802 -8.123233 -1.980782 2.394793 -12.754085 1.790610 -7.480317 -6.484074 0.540896 -7.480287 23.725662 -8.546056 -2.993612 -14.389631 8.613588 -0.783737 -6.287942 3.205873 -4.764942 -10.187959 -7.041287 10.874128 -10.567900 0.026072 3.478056 16.925306 9.514078 5.179781 -5.240873 
-0.000544 0.000146 -0.000977 175.043505 25.093640 -16.731707 8.719661 6.797320 8.726501 -4.522253 -12.674297 -3.169720 -8.033010 13.351123 -9.165465 3.875241 0.872790 1.479443 -6.994459 -6.774066 8.782976 5.263575 9.777488 -0.916454 14.412398 -11.838352 -10.370281 -11.231688 8.775570 1.940409 1.613269 2.165342 8.146078 0.322966 -2.917217 0.838315 1.050238 -0.040645 1.478953 -1.278071 4.055610 -4.406165 0.060281 -0.605858 -7.951895 -8.098114 0.607753 -8.003906 -2.032248 2.367516 -12.667123 2.102071 -8.358201 -6.388024 0.695651 -7.626272 23.811212 -8.665607 -3.064913 -14.453286 8.854419 -0.820095 -6.282770 3.279640 -4.920640 -10.035517 -7.638901 12.072002 -10.870954 -0.232544 3.709263 16.827932 9.654406 5.255923 -5.251831 
-0.001287 0.000214 -0.001332 175.021001 25.233967 -16.817662 8.671241 6.634879 8.758167 -4.570235 -12.594083 -3.145590 -7.916670 13.185666 -9.180605 3.884528 1.178777 1.460949 -7.045770 -6.743538 8.905780 5.258907 9.592347 -0.967679 14.214449 -11.850895 -10.329217 -10.971309 8.714666 2.073849 1.532056 2.178608 8.049849 0.347840 -2.895645 1.080851 1.039267 -0.079319 1.450916 -1.037981 4.084357 -4.105121 0.038720 -0.533774 -7.718981 -8.486723 0.770823 -7.824736 -2.287695 2.166390 -12.539685 2.739803 -10.212216 -7.193417 -0.275845 -7.367178 21.920501 -8.641037 -3.017521 -14.033079 9.098067 -0.977595 -6.245468 3.475234 -4.728078 -9.854954 -8.802358 14.095076 -12.071252 0.363002 3.599172 15.397162 9.710156 5.268091 -5.073579 
-0.002264 0.000357 -0.002210 175.052563 25.381665 -16.818888 8.510261 6.425372 8.669696 -4.590042 -12.367848 -3.103322 -7.739684 12.887790 -9.140628 3.950428 1.663219 1.421125 -7.157751 -6.634723 8.929105 5.286981 9.255964 -1.026566 14.082572 -11.884870 -10.251219 -10.841358 8.674382 2.240467 1.450874 2.276976 7.952972 0.410076 -2.867769 1.327716 0.979919 -0.108998 1.267409 -0.773727 4.274228 -4.104732 -0.160249 -0.649597 -7.441380 -9.046729 0.750148 -7.548114 -2.326801 2.030242 -12.186903 2.840580 -12.498584 -7.201151 -3.436115 -6.896523 20.461432 -8.715594 -2.988022 -13.916847 9.521529 -1.150815 -6.198338 3.617283 -4.616122 -9.474496 -10.979086 17.794607 -13.647919 2.135527 3.622992 13.628293 9.922645 5.331124 -4.949462 
